<?xml version="1.0" standalone="no"?>
<!DOCTYPE svg PUBLIC "-//W3C//DTD SVG 20010904//EN"
 "http://www.w3.org/TR/2001/REC-SVG-20010904/DTD/svg10.dtd">
<svg version="1.0" xmlns="http://www.w3.org/2000/svg"
 width="1280.000000pt" height="799.000000pt" viewBox="0 0 1280.000000 799.000000"
 preserveAspectRatio="xMidYMid meet">
<metadata>
Created by potrace 1.15, written by Peter Selinger 2001-2017
</metadata>
<g transform="translate(0.000000,799.000000) scale(0.100000,-0.100000)"
fill="#000000" stroke="none">
<path d="M11428 5493 l-3 -107 -77 -27 c-43 -15 -97 -38 -122 -52 l-44 -24
-78 78 -79 79 -162 -162 c-90 -90 -163 -167 -163 -173 0 -6 33 -44 74 -84 l75
-74 -24 -41 c-13 -23 -35 -76 -50 -118 l-28 -78 -108 0 -109 0 0 -240 0 -240
108 0 109 0 12 -42 c7 -24 29 -78 49 -121 l35 -78 -71 -72 c-40 -40 -72 -77
-72 -82 0 -5 73 -83 162 -172 l163 -163 77 77 77 77 79 -37 c43 -21 98 -43
123 -50 l44 -13 3 -112 3 -112 234 0 234 0 3 111 3 111 75 28 c41 15 95 37
119 49 l44 23 78 -78 79 -79 167 168 168 167 -79 79 -78 78 28 54 c15 30 38
83 50 119 l23 65 111 3 110 3 0 239 0 239 -110 3 -111 3 -23 65 c-12 36 -35
89 -50 119 l-28 54 76 76 76 76 -165 165 -165 165 -73 -73 c-40 -39 -76 -72
-81 -72 -5 0 -36 13 -70 29 -34 16 -87 37 -118 47 l-58 18 0 108 0 108 -235 0
-234 0 -3 -107z m389 -574 c81 -28 131 -60 190 -121 253 -269 127 -699 -232
-793 -214 -55 -444 55 -542 261 -34 71 -38 89 -41 177 -3 60 1 116 8 145 72
267 357 421 617 331z"/>
</g>
</svg>
